<svg xmlns="http://www.w3.org/2000/svg" fill="none" viewBox="0 0 14 14" width="24" height="24" role="img"><path class="ic-a-currency_exchange_svg__ic_a_currency_exchange" fill="#FBDC00" d="M4.563 9.303a2.006 2.006 0 1 0 0-4.012 2.006 2.006 0 0 0 0 4.012Z"></path><path class="ic-a-currency_exchange_svg__ic_a_currency_exchange" fill="#221F1F" d="M4.563 9.416a2.12 2.12 0 0 1-2.119-2.119 2.122 2.122 0 0 1 2.119-2.119A2.12 2.12 0 0 1 6.06 8.796a2.12 2.12 0 0 1-1.497.621Zm0-4.012a1.894 1.894 0 0 0-1.338 3.231c.355.355.836.555 1.338.556a1.894 1.894 0 0 0 0-3.788v.002Z"></path><path class="ic-a-currency_exchange_svg__ic_a_currency_exchange" fill="#221F1F" d="M4.456 8.767v-.231a.807.807 0 0 1-.763-.535.308.308 0 0 1-.01-.08.14.14 0 0 1 .146-.145.16.16 0 0 1 .159.127.5.5 0 0 0 .469.354v-.853l-.041-.011c-.446-.107-.685-.306-.685-.658a.705.705 0 0 1 .726-.677v-.231a.103.103 0 0 1 .108-.107.103.103 0 0 1 .107.107v.229a.78.78 0 0 1 .725.535c.007.026.01.053.01.08a.14.14 0 0 1-.146.146.16.16 0 0 1-.16-.127.5.5 0 0 0-.429-.35v.814l.056.012c.46.111.717.3.717.677 0 .43-.35.665-.773.7v.229a.104.104 0 0 1-.107.107.104.104 0 0 1-.109-.112Zm0-1.667v-.761c-.272.036-.415.2-.415.374s.108.311.415.385V7.1Zm.215.356v.803c.333-.025.462-.188.462-.393 0-.197-.097-.322-.45-.408l-.012-.002Z"></path><path class="ic-a-currency_exchange_svg__ic_a_currency_exchange" fill="#FBDC00" d="M9.375 9.301a2.006 2.006 0 1 0 0-4.012 2.006 2.006 0 0 0 0 4.012Z"></path><path class="ic-a-currency_exchange_svg__ic_a_currency_exchange" fill="#221F1F" d="M9.376 9.415a2.12 2.12 0 0 1-2.12-2.12 2.122 2.122 0 0 1 2.12-2.118 2.12 2.12 0 0 1 2.118 2.119 2.122 2.122 0 0 1-2.118 2.119Zm0-4.012a1.894 1.894 0 0 0-1.338 3.23c.355.355.836.555 1.338.556a1.895 1.895 0 0 0 1.338-3.232 1.894 1.894 0 0 0-1.338-.555Z"></path><g fill="#231F20"><path class="ic-a-currency_exchange_svg__ic_a_currency_exchange" d="M9.42 8.547a.991.991 0 0 1-.744-.419 1.463 1.463 0 0 1 .1-1.732.943.943 0 0 1 .555-.342.936.936 0 0 1 .744.228.113.113 0 0 1-.148.172.723.723 0 0 0-.559-.177.722.722 0 0 0-.42.266 1.241 1.241 0 0 0-.094 1.447.746.746 0 0 0 .615.329.684.684 0 0 0 .444-.262.113.113 0 1 1 .177.141.911.911 0 0 1-.6.347.724.724 0 0 1-.07.002Z"></path><path class="ic-a-currency_exchange_svg__ic_a_currency_exchange" d="M8.922 7.098c-.17 0-.406 0-.706-.002a.113.113 0 0 1 0-.226c.365 0 .964.004 1.014 0a.115.115 0 0 1 .122.1.112.112 0 0 1-.094.124 5.505 5.505 0 0 1-.336.004Zm-.002.623h-.704a.113.113 0 0 1 0-.226c.366 0 .964.004 1.015 0a.115.115 0 0 1 .122.1.112.112 0 0 1-.095.123 9.479 9.479 0 0 1-.338.003Z"></path></g><path class="ic-a-currency_exchange_svg__ic_a_currency_exchange" fill="#fff" d="M3.55 4.815c.234-.069.478-.097.721-.083h2.22v.624l1.127-.921-1.13-1.117v.68H4.3a2.866 2.866 0 0 0-.957.113 3.05 3.05 0 0 0-1.697 1.32 3.496 3.496 0 0 0-.437 2.66 3.427 3.427 0 0 0 1.64 2.114 3.36 3.36 0 0 0 1.567.4H5.88v-.731H4.418a2.624 2.624 0 0 1-1.22-.313 2.721 2.721 0 0 1-1.28-1.65 2.782 2.782 0 0 1 .341-2.079 2.329 2.329 0 0 1 1.292-1.017Z"></path><path class="ic-a-currency_exchange_svg__ic_a_currency_exchange" fill="#231F20" d="M5.88 10.723H4.414a3.476 3.476 0 0 1-1.62-.416 3.543 3.543 0 0 1-1.697-2.185 3.613 3.613 0 0 1 .45-2.75 3.163 3.163 0 0 1 1.76-1.368 2.98 2.98 0 0 1 .994-.117h2.07V3.32a.113.113 0 0 1 .192-.08l1.13 1.116a.114.114 0 0 1-.008.168l-1.124.922a.113.113 0 0 1-.184-.085v-.512h-2.11a2.032 2.032 0 0 0-.685.079 2.216 2.216 0 0 0-1.226.969 2.661 2.661 0 0 0-.327 1.99 2.604 2.604 0 0 0 1.225 1.579c.359.194.76.296 1.167.3h1.458a.113.113 0 0 1 .113.113v.734a.113.113 0 0 1-.113.11ZM4.153 4.11a2.74 2.74 0 0 0-.78.112A2.94 2.94 0 0 0 1.74 5.495a3.378 3.378 0 0 0-.423 2.57 3.312 3.312 0 0 0 1.585 2.043c.466.25.985.384 1.514.388h1.35v-.51h-1.35a2.733 2.733 0 0 1-1.274-.325 2.84 2.84 0 0 1-1.336-1.723 2.9 2.9 0 0 1 .356-2.168 2.439 2.439 0 0 1 1.35-1.064c.246-.072.502-.101.758-.087h2.214a.113.113 0 0 1 .113.113v.386l.842-.691-.847-.837v.408a.114.114 0 0 1-.113.114H4.29a2.236 2.236 0 0 0-.135-.004l-.001.002Z"></path><path class="ic-a-currency_exchange_svg__ic_a_currency_exchange" fill="#fff" d="M12.793 6.51a3.426 3.426 0 0 0-1.64-2.114 3.363 3.363 0 0 0-1.567-.4H8.122v.733h1.46c.426.004.845.111 1.22.313a2.723 2.723 0 0 1 1.28 1.65 2.782 2.782 0 0 1-.34 2.079 2.332 2.332 0 0 1-1.29 1.016 2.15 2.15 0 0 1-.72.083h-2.22v-.623l-1.124.921 1.13 1.117v-.68h2.188c.323.016.647-.022.958-.113.706-.22 1.31-.69 1.696-1.32a3.495 3.495 0 0 0 .434-2.662Z"></path><path class="ic-a-currency_exchange_svg__ic_a_currency_exchange" fill="#231F20" d="M7.517 11.396a.114.114 0 0 1-.08-.032l-1.13-1.117a.113.113 0 0 1 .008-.167l1.123-.921a.113.113 0 0 1 .185.084v.511h2.11c.23.014.463-.013.685-.077a2.218 2.218 0 0 0 1.227-.97c.365-.595.483-1.31.327-1.99a2.604 2.604 0 0 0-1.225-1.579 2.509 2.509 0 0 0-1.167-.3H8.12a.113.113 0 0 1-.112-.113v-.73a.113.113 0 0 1 .113-.114h1.464a3.476 3.476 0 0 1 1.62.416 3.542 3.542 0 0 1 1.696 2.186 3.614 3.614 0 0 1-.45 2.75 3.163 3.163 0 0 1-1.759 1.367 2.987 2.987 0 0 1-.994.117h-2.07v.566a.113.113 0 0 1-.111.114Zm-.961-1.222.847.838v-.409a.112.112 0 0 1 .113-.112h2.188c.312.016.625-.02.925-.108a2.942 2.942 0 0 0 1.634-1.274 3.377 3.377 0 0 0 .422-2.57A3.311 3.311 0 0 0 11.1 4.495a3.249 3.249 0 0 0-1.514-.388h-1.35v.508h1.35c.445.003.883.115 1.274.326a2.839 2.839 0 0 1 1.336 1.723 2.9 2.9 0 0 1-.356 2.168 2.438 2.438 0 0 1-1.35 1.063 2.26 2.26 0 0 1-.758.088H7.518a.113.113 0 0 1-.113-.113v-.386l-.85.69Z"></path></svg>