<svg xmlns="http://www.w3.org/2000/svg" fill="none" viewBox="0 0 14 14" width="24" height="24" role="img"><path class="ic-a-ocean_fcl_lcl_svg__ic_a_ocean_fcl_lcl" fill="#FEDE00" d="M12.01 3.013H5.186v7.316h6.822V3.013Z"></path><path class="ic-a-ocean_fcl_lcl_svg__ic_a_ocean_fcl_lcl" fill="#000" d="M12.078 10.403h-6.96V2.938h6.96v7.465Zm-6.822-.148h6.684V3.087H5.256v7.168Z"></path><path class="ic-a-ocean_fcl_lcl_svg__ic_a_ocean_fcl_lcl" fill="#fff" d="M8.228 3.98H6.013v2.374h2.215V3.98Z"></path><path class="ic-a-ocean_fcl_lcl_svg__ic_a_ocean_fcl_lcl" fill="#000" d="M8.297 6.428H5.944V3.905h2.353v2.523ZM6.082 6.28H8.16V4.053H6.082V6.28Z"></path><path class="ic-a-ocean_fcl_lcl_svg__ic_a_ocean_fcl_lcl" fill="#fff" d="M11.12 3.98H8.903v2.374h2.215V3.98Z"></path><path class="ic-a-ocean_fcl_lcl_svg__ic_a_ocean_fcl_lcl" d="M11.189 6.428h-.317V6.28h.178v-.19h.139v.338Zm-.562 0h-.492V6.28h.492v.148Zm-.738 0h-.492V6.28h.492v.148Zm-.738 0h-.316V6.09h.139v.19h.178v.148Zm-.177-.602h-.139V5.3h.139v.527Zm0-.791h-.139v-.527h.139v.527Zm0-.791h-.139v-.34h.316v.15h-.178v.19Zm1.653-.191h-.492v-.148h.492v.148Zm-.738 0h-.492v-.148h.492v.148Zm1.3.191h-.139v-.19h-.178v-.15h.317v.34Zm-.001 1.582h-.138V5.3h.138v.527Zm0-.791h-.138v-.527h.138v.527Z" fill="#000"></path><path class="ic-a-ocean_fcl_lcl_svg__ic_a_ocean_fcl_lcl" fill="#FEDE00" d="M8.228 7.071H6.013v2.375h2.215V7.071Z"></path><path class="ic-a-ocean_fcl_lcl_svg__ic_a_ocean_fcl_lcl" fill="#000" d="M8.297 9.52H5.944V6.997h2.353V9.52Zm-2.215-.148H8.16V7.145H6.082v2.227Z"></path><path class="ic-a-ocean_fcl_lcl_svg__ic_a_ocean_fcl_lcl" fill="#fff" d="M11.12 7.071H8.903v2.375h2.215V7.071Z"></path><path class="ic-a-ocean_fcl_lcl_svg__ic_a_ocean_fcl_lcl" fill="#000" d="M11.188 9.52H8.835V6.997h2.353V9.52Zm-2.215-.148h2.077V7.145H8.973v2.227Z"></path><path class="ic-a-ocean_fcl_lcl_svg__ic_a_ocean_fcl_lcl" fill="#fff" d="M5.172 6.95V5.409h-2.93v1.543"></path><path class="ic-a-ocean_fcl_lcl_svg__ic_a_ocean_fcl_lcl" fill="#000" d="M5.242 6.95h-.139V5.483H2.311v1.469h-.138V5.334h3.069v1.617Z"></path><path class="ic-a-ocean_fcl_lcl_svg__ic_a_ocean_fcl_lcl" fill="#fff" d="m1.096 7.513 2.649-1.274L6.27 7.513 5.048 10.5H2.583L1.096 7.513Z"></path><path class="ic-a-ocean_fcl_lcl_svg__ic_a_ocean_fcl_lcl" fill="#000" d="M5.094 10.574H2.542L1 7.477l2.745-1.32 2.616 1.32-1.267 3.097Zm-2.47-.149h2.38L6.18 7.55 3.744 6.32 1.192 7.547l1.433 2.878Z"></path><path class="ic-a-ocean_fcl_lcl_svg__ic_a_ocean_fcl_lcl" fill="#fff" d="M4.662 4.578H2.756v.83h1.906v-.83Z"></path><path class="ic-a-ocean_fcl_lcl_svg__ic_a_ocean_fcl_lcl" fill="#000" d="M4.73 5.483H2.688v-.979H4.73v.979Zm-1.905-.149h1.767v-.682H2.825v.682Z"></path><path class="ic-a-ocean_fcl_lcl_svg__ic_a_ocean_fcl_lcl" fill="#fff" d="M4.054 3.835h-.693v.743h.693v-.743Z"></path><path class="ic-a-ocean_fcl_lcl_svg__ic_a_ocean_fcl_lcl" fill="#000" d="M4.124 4.653h-.832V3.76h.832v.892Zm-.694-.149h.555V3.91H3.43v.595Zm.363 1.771h-.138v4.17h.138v-4.17Z"></path><path class="ic-a-ocean_fcl_lcl_svg__ic_a_ocean_fcl_lcl" fill="#fff" d="M4.611 8.389c.188 0 .34-.163.34-.364 0-.201-.152-.364-.34-.364-.187 0-.34.163-.34.364 0 .2.153.364.34.364Z"></path><path class="ic-a-ocean_fcl_lcl_svg__ic_a_ocean_fcl_lcl" fill="#000" d="M4.611 8.463a.39.39 0 0 1-.227-.074.433.433 0 0 1-.15-.197.467.467 0 0 1 .088-.477.401.401 0 0 1 .21-.12.384.384 0 0 1 .236.025c.074.033.138.09.183.161a.46.46 0 0 1-.05.553.396.396 0 0 1-.29.129Zm0-.728a.258.258 0 0 0-.15.049.286.286 0 0 0-.1.13.309.309 0 0 0 .06.316.254.254 0 0 0 .295.063.275.275 0 0 0 .12-.107.304.304 0 0 0-.034-.366.262.262 0 0 0-.19-.085Z"></path><path class="ic-a-ocean_fcl_lcl_svg__ic_a_ocean_fcl_lcl" fill="#fff" d="M2.757 8.389c.188 0 .34-.163.34-.364 0-.201-.152-.364-.34-.364-.188 0-.34.163-.34.364 0 .2.152.364.34.364Z"></path><path class="ic-a-ocean_fcl_lcl_svg__ic_a_ocean_fcl_lcl" fill="#000" d="M2.757 8.463a.39.39 0 0 1-.227-.074.433.433 0 0 1-.15-.197.467.467 0 0 1 .088-.477.401.401 0 0 1 .21-.12.384.384 0 0 1 .235.025c.075.033.139.09.184.161a.46.46 0 0 1-.051.553.396.396 0 0 1-.29.129Zm0-.728a.258.258 0 0 0-.15.049.286.286 0 0 0-.1.13.309.309 0 0 0 .059.316.254.254 0 0 0 .295.063.275.275 0 0 0 .12-.107.305.305 0 0 0-.033-.366.262.262 0 0 0-.191-.085Z"></path><path class="ic-a-ocean_fcl_lcl_svg__ic_a_ocean_fcl_lcl" fill="#fff" d="M11.968 9.724v1.133H2.065V9.73c.584 0 1.135-1.15 1.663-1.15.577 0 1.127 1.15 1.662 1.15.565 0 1.114-1.15 1.663-1.15.549 0 1.098 1.15 1.663 1.15.535 0 1.085-1.15 1.662-1.15.506.001 1.033 1.056 1.59 1.144Z"></path><path class="ic-a-ocean_fcl_lcl_svg__ic_a_ocean_fcl_lcl" fill="#000" d="M12.037 10.931H1.996V9.656h.069c.271 0 .553-.293.826-.575.284-.295.552-.574.837-.574.321 0 .62.31.91.612.255.264.517.537.752.537.257 0 .53-.285.795-.56.28-.29.567-.589.868-.589.3 0 .588.3.867.59.265.274.539.559.796.559.234 0 .497-.273.751-.537.29-.301.589-.612.911-.612.285 0 .553.279.837.573.251.261.51.53.763.57l.059.01v1.271Zm-9.903-.148h9.765v-.998c-.274-.073-.53-.34-.78-.598-.251-.262-.511-.532-.74-.532-.267 0-.546.29-.816.57-.286.298-.557.579-.847.579-.313 0-.607-.306-.892-.602-.258-.269-.526-.547-.77-.547-.245 0-.513.278-.772.547-.285.296-.58.602-.892.602-.29 0-.56-.281-.847-.579-.27-.28-.549-.57-.815-.57-.229 0-.49.27-.74.532-.272.282-.553.573-.854.612v.984Z"></path></svg>