<svg xmlns="http://www.w3.org/2000/svg" fill="none" viewBox="0 0 14 14" width="24" height="24" role="img"><path class="ic-a-container_svg__ic_a_container" fill="#231F20" d="M2.63 5.726a.168.168 0 0 1-.116-.288l4.451-4.333a.168.168 0 0 1 .236.002c.692.692 4.147 4.15 4.252 4.29a.168.168 0 1 1-.269.204c-.116-.14-2.473-2.506-4.104-4.14L2.748 5.68a.169.169 0 0 1-.117.047Z"></path><path class="ic-a-container_svg__ic_a_container" fill="#FBDC00" d="M2.695 6.309a.557.557 0 1 0 0-1.114.557.557 0 0 0 0 1.114Z"></path><path class="ic-a-container_svg__ic_a_container" fill="#231F20" d="M2.695 6.476a.725.725 0 1 1 0-1.449.725.725 0 0 1 0 1.45Zm0-1.113a.389.389 0 1 0 0 .777.389.389 0 0 0 0-.777Z"></path><path class="ic-a-container_svg__ic_a_container" fill="#FBDC00" d="M11.259 6.309a.557.557 0 1 0 0-1.115.557.557 0 0 0 0 1.115Z"></path><path class="ic-a-container_svg__ic_a_container" fill="#231F20" d="M11.259 6.476a.725.725 0 1 1 0-1.449.725.725 0 0 1 0 1.45Zm0-1.113a.389.389 0 1 0 0 .777.389.389 0 0 0 0-.777Z"></path><path class="ic-a-container_svg__ic_a_container" fill="#FBDC00" d="M12.832 6.026H1.168v6.748h11.664V6.026Z"></path><path class="ic-a-container_svg__ic_a_container" fill="#231F20" d="M12.832 12.942H1.168A.168.168 0 0 1 1 12.774V6.026a.168.168 0 0 1 .168-.168h11.664a.168.168 0 0 1 .168.168v6.748a.168.168 0 0 1-.168.168Zm-11.496-.336h11.328V6.194H1.336v6.412Z"></path><path class="ic-a-container_svg__ic_a_container" fill="#231F20" d="M11.112 12.109a.168.168 0 0 1-.168-.168V7.235a.168.168 0 1 1 .336 0v4.706a.168.168 0 0 1-.168.168Zm-2.056 0a.168.168 0 0 1-.168-.168V7.235a.168.168 0 1 1 .336 0v4.706a.168.168 0 0 1-.168.168Zm-2.056 0a.168.168 0 0 1-.167-.168V7.235a.168.168 0 1 1 .336 0v4.706a.168.168 0 0 1-.169.168Zm-2.056 0a.168.168 0 0 1-.168-.168V7.235a.168.168 0 0 1 .336 0v4.706a.168.168 0 0 1-.168.168Zm-2.056 0a.168.168 0 0 1-.168-.168V7.235a.168.168 0 1 1 .336 0v4.706a.168.168 0 0 1-.168.168Z"></path></svg>